<?xml version="1.0" encoding="UTF-8" standalone="no"?>
<svg id="loader-1" width="100%" height="100%" x="0px" y="0px" preserveAspectRatio="xMidYMid meet" style="enable-background:new 0 0 50 50;" viewBox="0 0 50 80">
    <defs>
        <symbol id="myloader" width="100%" height="100%" x="0px" y="0px" preserveAspectRatio="xMidYMid meet" style="enable-background:new 0 0 50 50;" viewBox="0 0 50 80">
            <text fill="black">
                <tspan x="-20" y="60" fill="black" font-family="Menlo" font-size="12" font-weight="500">loading svg...</tspan>
            </text>
            <path fill="#000" d="M43.935,25.145c0-10.318-8.364-18.683-18.683-18.683c-10.318,0-18.683,8.365-18.683,18.683h4.068c0-8.071,6.543-14.615,14.615-14.615c8.072,0,14.615,6.543,14.615,14.615H43.935z">
                <animateTransform attributeName="transform" attributeType="xml" dur="0.6s" from="0 25 25" repeatCount="indefinite" to="360 25 25" type="rotate"/>
            </path>
        </symbol>
    </defs>
<!--<g> <text fill="black"> <tspan x="-20" y="60" fill="black" font-family="Menlo" font-size="12" font-weight="500">loading svg...</tspan> </text> <path fill="#000" d="M43.935,25.145c0-10.318-8.364-18.683-18.683-18.683c-10.318,0-18.683,8.365-18.683,18.683h4.068c0-8.071,6.543-14.615,14.615-14.615c8.072,0,14.615,6.543,14.615,14.615H43.935z"> <animateTransform attributeName="transform" attributeType="xml" dur="0.6s" from="0 25 25" repeatCount="indefinite" to="360 25 25" type="rotate"/> </path> </g>-->
</svg>
